<mxfile host="Electron" modified="2023-09-04T21:33:23.340Z" agent="Mozilla/5.0 (X11; Linux x86_64) AppleWebKit/537.36 (KHTML, like Gecko) draw.io/21.6.8 Chrome/114.0.5735.289 Electron/25.5.0 Safari/537.36" etag="SIaIA4L2oVojNMrO9qnu" version="21.6.8" type="device">
  <diagram id="_jchL74tdjB6g8SfiNv7" name="Seite-1">
    <mxGraphModel dx="2049" dy="1199" grid="1" gridSize="10" guides="1" tooltips="1" connect="1" arrows="1" fold="1" page="1" pageScale="1" pageWidth="827" pageHeight="1169" math="0" shadow="0">
      <root>
        <mxCell id="0" />
        <mxCell id="1" parent="0" />
        <mxCell id="W04ZB3CdsW1EYFhz2w3D-1" value="Input" style="ellipse;whiteSpace=wrap;html=1;aspect=fixed;fillColor=#dae8fc;strokeColor=#6c8ebf;fontSize=20;" parent="1" vertex="1">
          <mxGeometry x="40" y="320" width="120" height="120" as="geometry" />
        </mxCell>
        <mxCell id="W04ZB3CdsW1EYFhz2w3D-2" value="" style="ellipse;whiteSpace=wrap;html=1;aspect=fixed;fillColor=#f5f5f5;strokeColor=#666666;fontColor=#333333;" parent="1" vertex="1">
          <mxGeometry x="240" y="200" width="360" height="360" as="geometry" />
        </mxCell>
        <mxCell id="W04ZB3CdsW1EYFhz2w3D-3" value="output" style="ellipse;whiteSpace=wrap;html=1;aspect=fixed;fillColor=#f8cecc;strokeColor=#b85450;fontSize=20;" parent="1" vertex="1">
          <mxGeometry x="680" y="320" width="120" height="120" as="geometry" />
        </mxCell>
        <mxCell id="W04ZB3CdsW1EYFhz2w3D-4" value="" style="shape=hexagon;perimeter=hexagonPerimeter2;whiteSpace=wrap;html=1;fixedSize=1;size=20;rotation=-90;fillColor=#ffe6cc;strokeColor=#d79b00;" parent="1" vertex="1">
          <mxGeometry x="335" y="260" width="90" height="80" as="geometry" />
        </mxCell>
        <mxCell id="W04ZB3CdsW1EYFhz2w3D-18" style="edgeStyle=orthogonalEdgeStyle;rounded=0;orthogonalLoop=1;jettySize=auto;html=1;entryX=1;entryY=0.5;entryDx=0;entryDy=0;exitX=0.5;exitY=0;exitDx=0;exitDy=0;endArrow=none;endFill=0;startArrow=classic;startFill=1;strokeWidth=3;fontSize=20;" parent="1" source="W04ZB3CdsW1EYFhz2w3D-5" target="W04ZB3CdsW1EYFhz2w3D-1" edge="1">
          <mxGeometry relative="1" as="geometry">
            <Array as="points" />
          </mxGeometry>
        </mxCell>
        <mxCell id="W04ZB3CdsW1EYFhz2w3D-5" value="" style="shape=hexagon;perimeter=hexagonPerimeter2;whiteSpace=wrap;html=1;fixedSize=1;size=20;rotation=-90;fillColor=#dae8fc;strokeColor=#6c8ebf;fontSize=20;" parent="1" vertex="1">
          <mxGeometry x="290" y="340" width="90" height="80" as="geometry" />
        </mxCell>
        <mxCell id="W04ZB3CdsW1EYFhz2w3D-6" value="" style="shape=hexagon;perimeter=hexagonPerimeter2;whiteSpace=wrap;html=1;fixedSize=1;size=20;rotation=-90;fillColor=#ffe6cc;strokeColor=#d79b00;fontSize=20;" parent="1" vertex="1">
          <mxGeometry x="380" y="340" width="90" height="80" as="geometry" />
        </mxCell>
        <mxCell id="W04ZB3CdsW1EYFhz2w3D-7" value="" style="shape=hexagon;perimeter=hexagonPerimeter2;whiteSpace=wrap;html=1;fixedSize=1;size=20;rotation=-90;fillColor=#ffe6cc;strokeColor=#d79b00;fontSize=20;" parent="1" vertex="1">
          <mxGeometry x="335" y="420" width="90" height="80" as="geometry" />
        </mxCell>
        <mxCell id="W04ZB3CdsW1EYFhz2w3D-12" value="" style="shape=hexagon;perimeter=hexagonPerimeter2;whiteSpace=wrap;html=1;fixedSize=1;size=20;rotation=-90;fillColor=#ffe6cc;strokeColor=#d79b00;fontSize=20;" parent="1" vertex="1">
          <mxGeometry x="425" y="420" width="90" height="80" as="geometry" />
        </mxCell>
        <mxCell id="W04ZB3CdsW1EYFhz2w3D-19" style="edgeStyle=orthogonalEdgeStyle;rounded=0;orthogonalLoop=1;jettySize=auto;html=1;entryX=0;entryY=0.5;entryDx=0;entryDy=0;startArrow=none;startFill=0;endArrow=classic;endFill=1;exitX=0.5;exitY=1;exitDx=0;exitDy=0;strokeWidth=3;fontSize=20;" parent="1" source="W04ZB3CdsW1EYFhz2w3D-13" target="W04ZB3CdsW1EYFhz2w3D-3" edge="1">
          <mxGeometry relative="1" as="geometry">
            <Array as="points" />
          </mxGeometry>
        </mxCell>
        <mxCell id="W04ZB3CdsW1EYFhz2w3D-13" value="" style="shape=hexagon;perimeter=hexagonPerimeter2;whiteSpace=wrap;html=1;fixedSize=1;size=20;rotation=-90;fillColor=#f8cecc;strokeColor=#b85450;fontSize=20;" parent="1" vertex="1">
          <mxGeometry x="470" y="340" width="90" height="80" as="geometry" />
        </mxCell>
        <mxCell id="W04ZB3CdsW1EYFhz2w3D-14" value="" style="shape=hexagon;perimeter=hexagonPerimeter2;whiteSpace=wrap;html=1;fixedSize=1;size=20;rotation=-90;fillColor=#ffe6cc;strokeColor=#d79b00;" parent="1" vertex="1">
          <mxGeometry x="425" y="260" width="90" height="80" as="geometry" />
        </mxCell>
      </root>
    </mxGraphModel>
  </diagram>
</mxfile>
